<svg width="376" height="381" viewBox="0 0 376 381" fill="none" xmlns="http://www.w3.org/2000/svg">
<g filter="url(#filter0_d)">
<circle cx="180.5" cy="185.5" r="180.5" fill="white"/>
<circle cx="180.5" cy="185.5" r="175.5" stroke="#0CCEFF" stroke-width="10"/>
</g>
<path fill-rule="evenodd" clip-rule="evenodd" d="M77.1271 223.267C79.2775 225.552 81.6206 227.624 84 229C85.7904 230.036 87.4895 230.831 89.1459 231.447L97.4489 215.763C95.6628 215.114 93.9217 214.356 92.5 213.5C91.6243 212.973 90.7397 212.329 89.8656 211.612L77.1271 223.267ZM104.586 233.763C99.8691 233.568 95.8423 233.401 91.7026 232.269L99.6921 216.52C102.263 217.328 104.688 217.903 106.134 218.218L105.218 233.789C105.006 233.78 104.796 233.771 104.586 233.763ZM108.082 233.92C108.547 233.944 109.019 233.971 109.5 234C114.178 234.286 121.5 234 121.5 234V218.5H109.127L108.082 233.92ZM75.2399 221.155C70.4442 215.525 67 209.5 67 209.5L79.5 200C79.5 200 83.2332 205.394 87.729 209.707L75.2399 221.155Z" fill="#C4C4C4"/>
<path fill-rule="evenodd" clip-rule="evenodd" d="M77.1271 223.267C79.2775 225.552 81.6206 227.624 84 229C85.7904 230.036 87.4895 230.831 89.1459 231.447L97.4489 215.763C95.6628 215.114 93.9217 214.356 92.5 213.5C91.6243 212.973 90.7397 212.329 89.8656 211.612L77.1271 223.267ZM104.586 233.763C99.8691 233.568 95.8423 233.401 91.7026 232.269L99.6921 216.52C102.263 217.328 104.688 217.903 106.134 218.218L105.218 233.789C105.006 233.78 104.796 233.771 104.586 233.763ZM108.082 233.92C108.547 233.944 109.019 233.971 109.5 234C114.178 234.286 121.5 234 121.5 234V218.5H109.127L108.082 233.92ZM75.2399 221.155C70.4442 215.525 67 209.5 67 209.5L79.5 200C79.5 200 83.2332 205.394 87.729 209.707L75.2399 221.155Z" fill="url(#paint0_linear)"/>
<path fill-rule="evenodd" clip-rule="evenodd" d="M42.5526 188.266C42.1912 189.625 42 191.043 42 192.5C42 202.717 51.402 211 63 211C74.598 211 84 202.717 84 192.5C84 182.283 74.598 174 63 174C62.5095 174 62.0229 174.015 61.5408 174.044C69.0292 182.833 71.794 192.489 67.6412 196.641C63.0915 201.191 51.9365 197.437 42.5526 188.266Z" fill="#9D9C9C"/>
<path fill-rule="evenodd" clip-rule="evenodd" d="M284.373 224.267C282.222 226.552 279.879 228.624 277.5 230C275.71 231.036 274.011 231.831 272.354 232.447L264.051 216.763C265.837 216.114 267.578 215.356 269 214.5C269.876 213.973 270.76 213.329 271.634 212.612L284.373 224.267ZM261.808 217.52L269.797 233.269C265.658 234.401 261.631 234.568 256.914 234.763C256.704 234.771 256.494 234.78 256.282 234.789L255.366 219.218C256.812 218.903 259.237 218.328 261.808 217.52ZM252.373 219.5L253.418 234.92C252.953 234.944 252.481 234.971 252 235C247.322 235.286 240 235 240 235V219.5H252.373ZM286.26 222.155L273.771 210.707C278.267 206.394 282 201 282 201L294.5 210.5C294.5 210.5 291.056 216.525 286.26 222.155Z" fill="#C4C4C4"/>
<path fill-rule="evenodd" clip-rule="evenodd" d="M284.373 224.267C282.222 226.552 279.879 228.624 277.5 230C275.71 231.036 274.011 231.831 272.354 232.447L264.051 216.763C265.837 216.114 267.578 215.356 269 214.5C269.876 213.973 270.76 213.329 271.634 212.612L284.373 224.267ZM261.808 217.52L269.797 233.269C265.658 234.401 261.631 234.568 256.914 234.763C256.704 234.771 256.494 234.78 256.282 234.789L255.366 219.218C256.812 218.903 259.237 218.328 261.808 217.52ZM252.373 219.5L253.418 234.92C252.953 234.944 252.481 234.971 252 235C247.322 235.286 240 235 240 235V219.5H252.373ZM286.26 222.155L273.771 210.707C278.267 206.394 282 201 282 201L294.5 210.5C294.5 210.5 291.056 216.525 286.26 222.155Z" fill="url(#paint1_linear)"/>
<path fill-rule="evenodd" clip-rule="evenodd" d="M299.959 175.044C292.471 183.833 289.706 193.489 293.859 197.641C298.408 202.191 309.564 198.437 318.947 189.266C319.309 190.625 319.5 192.043 319.5 193.5C319.5 203.717 310.098 212 298.5 212C286.902 212 277.5 203.717 277.5 193.5C277.5 183.283 286.902 175 298.5 175C298.991 175 299.477 175.015 299.959 175.044Z" fill="#9D9C9C"/>
<path d="M131 305.5L113 197H247L231.5 305.5C192.253 317.457 170.246 317.66 131 305.5Z" fill="#C4C4C4"/>
<path d="M131 305.5L113 197H247L231.5 305.5C192.253 317.457 170.246 317.66 131 305.5Z" fill="url(#paint2_linear)"/>
<path d="M213.53 247C213.53 247 205.465 243.404 202.585 233.216C199.704 223.028 208.155 220.075 212.954 233.216C217.645 218.992 227.356 223.028 224.476 233.216C221.595 243.404 213.53 247 213.53 247Z" fill="#DC5E5E"/>
<ellipse cx="180" cy="157" rx="89" ry="61" fill="#C4C4C4"/>
<ellipse cx="180" cy="157" rx="89" ry="61" fill="url(#paint3_linear)"/>
<path d="M113.335 139.826C117.568 131.353 126.227 126 135.699 126H223.508C233.071 126 241.795 131.455 245.983 140.051L248.75 145.731C252.069 152.544 252.118 160.495 248.884 167.349L245.901 173.67C241.772 182.419 232.966 188 223.292 188H135.917C126.332 188 117.59 182.52 113.414 173.892L110.357 167.575C106.979 160.596 107.03 152.445 110.495 145.509L113.335 139.826Z" fill="#777373"/>
<path d="M166 98.5L178.5 62L193 98.5C183.143 103.181 177.294 103.603 166 98.5Z" fill="#C4C4C4"/>
<path d="M166 98.5L178.5 62L193 98.5C183.143 103.181 177.294 103.603 166 98.5Z" fill="url(#paint4_linear)"/>
<circle cx="179" cy="66" r="10" fill="#0CCEFF"/>
<circle cx="179" cy="66" r="10" fill="url(#paint5_linear)"/>
<path d="M170 161.5C170 161.5 172 167.5 179 167.5C186 167.5 188.5 161.5 188.5 161.5" stroke="white" stroke-width="3"/>
<ellipse cx="149.5" cy="153" rx="4.5" ry="7" fill="white"/>
<ellipse cx="149.5" cy="157" rx="3.5" ry="3" fill="#060505"/>
<ellipse cx="209.5" cy="153" rx="4.5" ry="7" fill="white"/>
<ellipse cx="209.5" cy="157" rx="3.5" ry="3" fill="#060505"/>
<path d="M208.613 156.829L207 156.164L208.164 155L208.613 156.829Z" fill="white"/>
<path d="M148.613 156.829L147 156.164L148.164 155L148.613 156.829Z" fill="white"/>
<defs>
<filter id="filter0_d" x="-5" y="0" width="381" height="381" filterUnits="userSpaceOnUse" color-interpolation-filters="sRGB">
<feFlood flood-opacity="0" result="BackgroundImageFix"/>
<feColorMatrix in="SourceAlpha" type="matrix" values="0 0 0 0 0 0 0 0 0 0 0 0 0 0 0 0 0 0 127 0"/>
<feOffset dx="5" dy="5"/>
<feGaussianBlur stdDeviation="5"/>
<feColorMatrix type="matrix" values="0 0 0 0 0.432314 0 0 0 0 0.428539 0 0 0 0 0.428539 0 0 0 0.1 0"/>
<feBlend mode="normal" in2="BackgroundImageFix" result="effect1_dropShadow"/>
<feBlend mode="normal" in="SourceGraphic" in2="effect1_dropShadow" result="shape"/>
</filter>
<linearGradient id="paint0_linear" x1="106" y1="196.5" x2="94.25" y2="234.127" gradientUnits="userSpaceOnUse">
<stop stop-color="white"/>
<stop offset="1" stop-color="#AAAAAA"/>
</linearGradient>
<linearGradient id="paint1_linear" x1="255.5" y1="197.5" x2="267.25" y2="235.127" gradientUnits="userSpaceOnUse">
<stop stop-color="white"/>
<stop offset="1" stop-color="#AAAAAA"/>
</linearGradient>
<linearGradient id="paint2_linear" x1="288" y1="208" x2="100.5" y2="187" gradientUnits="userSpaceOnUse">
<stop stop-color="#A9A9A9"/>
<stop offset="0.0001" stop-color="#E1E1E1"/>
<stop offset="1" stop-color="#939393"/>
</linearGradient>
<linearGradient id="paint3_linear" x1="231" y1="60" x2="180" y2="218" gradientUnits="userSpaceOnUse">
<stop stop-color="white"/>
<stop offset="1" stop-color="white" stop-opacity="0"/>
</linearGradient>
<linearGradient id="paint4_linear" x1="194" y1="47" x2="179.5" y2="91" gradientUnits="userSpaceOnUse">
<stop stop-color="white"/>
<stop offset="0.9999" stop-color="#4B4B4B" stop-opacity="0"/>
<stop offset="1" stop-color="#4B4B4B" stop-opacity="0"/>
</linearGradient>
<linearGradient id="paint5_linear" x1="182.5" y1="46" x2="179" y2="76" gradientUnits="userSpaceOnUse">
<stop stop-color="white"/>
<stop offset="1" stop-color="white" stop-opacity="0"/>
</linearGradient>
</defs>
</svg>
