<svg width="596" height="406" viewBox="0 0 596 406" fill="none" xmlns="http://www.w3.org/2000/svg">
<path fill-rule="evenodd" clip-rule="evenodd" d="M501.867 -0.290924C504.281 1.35956 507.537 0.797699 509.139 -1.5459C509.451 -2.00275 509.678 -2.49356 509.822 -3H604V164.446C603.486 164.767 602.994 165.137 602.529 165.556C598.014 169.621 597.8 176.743 602.05 181.463C602.648 182.127 603.303 182.709 604 183.206V349.625C602.689 352.494 602.68 355.877 604 358.879V409H452.083C456.347 404.9 456.473 397.961 452.305 393.332C448.055 388.612 440.95 388.081 436.436 392.147C431.921 396.212 431.707 403.333 435.957 408.053C436.26 408.39 436.578 408.706 436.909 409H209C215.075 409 220 403.851 220 397.5C220 391.149 215.075 386 209 386C202.925 386 198 391.149 198 397.5C198 403.851 202.925 409 209 409H0V220.745C1.91779 220.741 3.7829 219.645 4.71594 217.768C6.0177 215.15 5.01215 212.003 2.46994 210.739C1.67825 210.345 0.830902 210.181 0 210.22V125.94C4.46909 126.317 8.84546 124.104 10.8869 119.998C13.5914 114.558 11.1735 107.856 5.48633 105.029C3.71332 104.147 1.83188 103.746 0 103.777V-3H328.672C328.528 0.693848 330.157 4.31274 333.335 6.48566C338.35 9.91467 345.321 8.44427 348.906 3.20142C350.216 1.28531 350.893 -0.869507 350.979 -3H451.475C451.015 -2.52292 450.588 -2.00034 450.201 -1.43372C446.616 3.80911 447.775 10.8391 452.79 14.268C457.805 17.6971 464.776 16.2267 468.361 10.9838C471.422 6.50745 471.024 0.728333 467.721 -3H499.801C500.161 -1.94113 500.862 -0.978363 501.867 -0.290924ZM209 113C215.075 113 220 107.851 220 101.5C220 95.1487 215.075 90 209 90C202.925 90 198 95.1487 198 101.5C198 107.851 202.925 113 209 113ZM274 48.5C274 54.8513 269.075 60 263 60C256.925 60 252 54.8513 252 48.5C252 42.1487 256.925 37 263 37C269.075 37 274 42.1487 274 48.5ZM144 103C150.075 103 155 97.8513 155 91.5C155 85.1487 150.075 80 144 80C137.925 80 133 85.1487 133 91.5C133 97.8513 137.925 103 144 103ZM274 103.5C274 109.851 269.075 115 263 115C256.925 115 252 109.851 252 103.5C252 97.1487 256.925 92 263 92C269.075 92 274 97.1487 274 103.5ZM160 176C166.075 176 171 170.851 171 164.5C171 158.149 166.075 153 160 153C153.925 153 149 158.149 149 164.5C149 170.851 153.925 176 160 176ZM220 180.5C220 186.851 215.075 192 209 192C202.925 192 198 186.851 198 180.5C198 174.149 202.925 169 209 169C215.075 169 220 174.149 220 180.5ZM143 226C149.075 226 154 220.851 154 214.5C154 208.149 149.075 203 143 203C136.925 203 132 208.149 132 214.5C132 220.851 136.925 226 143 226ZM281 216.5C281 222.851 276.075 228 270 228C263.925 228 259 222.851 259 216.5C259 210.149 263.925 205 270 205C276.075 205 281 210.149 281 216.5ZM320 114C326.075 114 331 108.851 331 102.5C331 96.1487 326.075 91 320 91C313.925 91 309 96.1487 309 102.5C309 108.851 313.925 114 320 114ZM355 140.5C355 146.851 350.075 152 344 152C337.925 152 333 146.851 333 140.5C333 134.149 337.925 129 344 129C350.075 129 355 134.149 355 140.5ZM274 181C280.075 181 285 175.851 285 169.5C285 163.149 280.075 158 274 158C267.925 158 263 163.149 263 169.5C263 175.851 267.925 181 274 181ZM404.599 155.044C399.879 159.294 392.757 159.079 388.692 154.565C384.627 150.05 385.158 142.945 389.877 138.695C394.597 134.445 401.719 134.66 405.784 139.174C409.849 143.689 409.319 150.794 404.599 155.044ZM236.295 220.281C239.219 220.281 241.589 217.98 241.589 215.141C241.589 212.302 239.219 210 236.295 210C233.37 210 231 212.302 231 215.141C231 217.98 233.37 220.281 236.295 220.281ZM338.589 195.141C338.589 197.98 336.219 200.281 333.295 200.281C330.37 200.281 328 197.98 328 195.141C328 192.302 330.37 190 333.295 190C336.219 190 338.589 192.302 338.589 195.141ZM176.295 90.2811C179.219 90.2811 181.589 87.9796 181.589 85.1405C181.589 82.3015 179.219 80 176.295 80C173.37 80 171 82.3015 171 85.1405C171 87.9796 173.37 90.2811 176.295 90.2811ZM203.589 145.141C203.589 147.98 201.219 150.281 198.295 150.281C195.37 150.281 193 147.98 193 145.141C193 142.301 195.37 140 198.295 140C201.219 140 203.589 142.301 203.589 145.141ZM214.295 65.2811C217.219 65.2811 219.589 62.9796 219.589 60.1405C219.589 57.3015 217.219 55 214.295 55C211.37 55 209 57.3015 209 60.1405C209 62.9796 211.37 65.2811 214.295 65.2811ZM159.589 136.141C159.589 138.98 157.219 141.281 154.295 141.281C151.37 141.281 149 138.98 149 136.141C149 133.301 151.37 131 154.295 131C157.219 131 159.589 133.301 159.589 136.141ZM133.295 181.281C136.219 181.281 138.589 178.98 138.589 176.141C138.589 173.301 136.219 171 133.295 171C130.37 171 128 173.301 128 176.141C128 178.98 130.37 181.281 133.295 181.281ZM181.589 205.141C181.589 207.98 179.219 210.281 176.295 210.281C173.37 210.281 171 207.98 171 205.141C171 202.302 173.37 200 176.295 200C179.219 200 181.589 202.302 181.589 205.141ZM299.295 141.281C302.219 141.281 304.589 138.98 304.589 136.141C304.589 133.301 302.219 131 299.295 131C296.37 131 294 133.301 294 136.141C294 138.98 296.37 141.281 299.295 141.281ZM300.589 70.1405C300.589 72.9796 298.219 75.2811 295.295 75.2811C292.37 75.2811 290 72.9796 290 70.1405C290 67.3015 292.37 65 295.295 65C298.219 65 300.589 67.3015 300.589 70.1405ZM246.295 137.281C249.219 137.281 251.589 134.98 251.589 132.141C251.589 129.301 249.219 127 246.295 127C243.37 127 241 129.301 241 132.141C241 134.98 243.37 137.281 246.295 137.281ZM314.697 176.371C314.697 179.21 312.327 181.512 309.402 181.512C306.478 181.512 304.108 179.21 304.108 176.371C304.108 173.532 306.478 171.23 309.402 171.23C312.327 171.23 314.697 173.532 314.697 176.371ZM148 294C154.075 294 159 288.851 159 282.5C159 276.149 154.075 271 148 271C141.925 271 137 276.149 137 282.5C137 288.851 141.925 294 148 294ZM213 229.5C213 235.851 208.075 241 202 241C195.925 241 191 235.851 191 229.5C191 223.149 195.925 218 202 218C208.075 218 213 223.149 213 229.5ZM83 284C89.0751 284 94 278.851 94 272.5C94 266.149 89.0751 261 83 261C76.9249 261 72 266.149 72 272.5C72 278.851 76.9249 284 83 284ZM213 284.5C213 290.851 208.075 296 202 296C195.925 296 191 290.851 191 284.5C191 278.149 195.925 273 202 273C208.075 273 213 278.149 213 284.5ZM99 357C105.075 357 110 351.851 110 345.5C110 339.149 105.075 334 99 334C92.9249 334 88 339.149 88 345.5C88 351.851 92.9249 357 99 357ZM159 361.5C159 367.851 154.075 373 148 373C141.925 373 137 367.851 137 361.5C137 355.149 141.925 350 148 350C154.075 350 159 355.149 159 361.5ZM82 407C88.0751 407 93 401.851 93 395.5C93 389.149 88.0751 384 82 384C75.9249 384 71 389.149 71 395.5C71 401.851 75.9249 407 82 407ZM259 295C265.075 295 270 289.851 270 283.5C270 277.149 265.075 272 259 272C252.925 272 248 277.149 248 283.5C248 289.851 252.925 295 259 295ZM294 321.5C294 327.851 289.075 333 283 333C276.925 333 272 327.851 272 321.5C272 315.149 276.925 310 283 310C289.075 310 294 315.149 294 321.5ZM213 362C219.075 362 224 356.851 224 350.5C224 344.149 219.075 339 213 339C206.925 339 202 344.149 202 350.5C202 356.851 206.925 362 213 362ZM295 372.5C295 378.851 290.075 384 284 384C277.925 384 273 378.851 273 372.5C273 366.149 277.925 361 284 361C290.075 361 295 366.149 295 372.5ZM175.295 401.281C178.219 401.281 180.589 398.98 180.589 396.141C180.589 393.302 178.219 391 175.295 391C172.37 391 170 393.302 170 396.141C170 398.98 172.37 401.281 175.295 401.281ZM248.589 381.141C248.589 383.98 246.219 386.281 243.295 386.281C240.37 386.281 238 383.98 238 381.141C238 378.302 240.37 376 243.295 376C246.219 376 248.589 378.302 248.589 381.141ZM115.295 271.281C118.219 271.281 120.589 268.98 120.589 266.141C120.589 263.302 118.219 261 115.295 261C112.37 261 110 263.302 110 266.141C110 268.98 112.37 271.281 115.295 271.281ZM142.589 326.141C142.589 328.98 140.219 331.281 137.295 331.281C134.37 331.281 132 328.98 132 326.141C132 323.302 134.37 321 137.295 321C140.219 321 142.589 323.302 142.589 326.141ZM153.295 246.281C156.219 246.281 158.589 243.98 158.589 241.141C158.589 238.302 156.219 236 153.295 236C150.37 236 148 238.302 148 241.141C148 243.98 150.37 246.281 153.295 246.281ZM98.5892 317.141C98.5892 319.98 96.2188 322.281 93.2946 322.281C90.3705 322.281 88 319.98 88 317.141C88 314.302 90.3705 312 93.2946 312C96.2188 312 98.5892 314.302 98.5892 317.141ZM72.2946 362.281C75.2188 362.281 77.5892 359.98 77.5892 357.141C77.5892 354.302 75.2188 352 72.2946 352C69.3705 352 67 354.302 67 357.141C67 359.98 69.3705 362.281 72.2946 362.281ZM120.589 386.141C120.589 388.98 118.219 391.281 115.295 391.281C112.37 391.281 110 388.98 110 386.141C110 383.302 112.37 381 115.295 381C118.219 381 120.589 383.302 120.589 386.141ZM238.295 322.281C241.219 322.281 243.589 319.98 243.589 317.141C243.589 314.302 241.219 312 238.295 312C235.37 312 233 314.302 233 317.141C233 319.98 235.37 322.281 238.295 322.281ZM239.589 251.141C239.589 253.98 237.219 256.281 234.295 256.281C231.37 256.281 229 253.98 229 251.141C229 248.302 231.37 246 234.295 246C237.219 246 239.589 248.302 239.589 251.141ZM185.295 318.281C188.219 318.281 190.589 315.98 190.589 313.141C190.589 310.302 188.219 308 185.295 308C182.37 308 180 310.302 180 313.141C180 315.98 182.37 318.281 185.295 318.281ZM253.697 357.371C253.697 360.21 251.327 362.512 248.402 362.512C245.478 362.512 243.108 360.21 243.108 357.371C243.108 354.532 245.478 352.23 248.402 352.23C251.327 352.23 253.697 354.532 253.697 357.371ZM427.702 247.95C432.217 243.885 432.431 236.763 428.181 232.043C423.931 227.323 416.826 226.793 412.311 230.858C407.797 234.923 407.582 242.045 411.832 246.765C416.082 251.484 423.187 252.015 427.702 247.95ZM503.701 236.706C507.951 241.426 507.736 248.548 503.222 252.613C498.707 256.678 491.602 256.148 487.352 251.428C483.102 246.708 483.317 239.586 487.831 235.521C492.346 231.456 499.451 231.987 503.701 236.706ZM391.638 192.955C396.153 188.89 396.367 181.768 392.117 177.049C387.867 172.329 380.762 171.798 376.247 175.864C371.733 179.929 371.518 187.05 375.768 191.77C380.018 196.49 387.123 197.021 391.638 192.955ZM462.829 273.51C467.079 278.23 466.865 285.351 462.35 289.417C457.836 293.482 450.731 292.951 446.481 288.232C442.231 283.512 442.445 276.39 446.96 272.325C451.474 268.26 458.579 268.79 462.829 273.51ZM348.097 253.694C352.611 249.628 352.826 242.507 348.576 237.787C344.326 233.067 337.221 232.537 332.706 236.602C328.192 240.667 327.977 247.789 332.227 252.509C336.477 257.228 343.582 257.759 348.097 253.694ZM369.474 284.907C373.724 289.626 373.51 296.748 368.995 300.813C364.481 304.878 357.376 304.348 353.126 299.628C348.876 294.908 349.09 287.787 353.605 283.721C358.119 279.656 365.224 280.187 369.474 284.907ZM299.565 274.518C304.079 270.453 304.294 263.332 300.044 258.612C295.794 253.892 288.689 253.361 284.174 257.427C279.66 261.492 279.445 268.613 283.695 273.333C287.945 278.053 295.05 278.584 299.565 274.518ZM383.541 354.327C387.791 359.046 387.576 366.168 383.062 370.233C378.547 374.298 371.442 373.768 367.192 369.048C362.942 364.328 363.156 357.207 367.671 353.141C372.186 349.076 379.291 349.607 383.541 354.327ZM501.235 331.105C505.75 327.04 505.964 319.919 501.714 315.199C497.464 310.479 490.359 309.948 485.845 314.014C481.33 318.079 481.116 325.2 485.366 329.92C489.616 334.64 496.721 335.171 501.235 331.105ZM489.535 358.462C493.785 363.181 493.571 370.303 489.056 374.368C484.542 378.433 477.437 377.903 473.187 373.183C468.937 368.463 469.151 361.342 473.666 357.276C478.18 353.211 485.285 353.742 489.535 358.462ZM420.665 341.755C425.179 337.69 425.394 330.568 421.144 325.849C416.894 321.129 409.789 320.598 405.274 324.664C400.76 328.729 400.545 335.85 404.795 340.57C409.045 345.29 416.15 345.821 420.665 341.755ZM357.262 339.55C359.435 337.594 359.657 334.297 357.757 332.187C355.857 330.078 352.555 329.954 350.382 331.91C348.209 333.867 347.988 337.164 349.888 339.273C351.788 341.383 355.089 341.507 357.262 339.55ZM414.406 372.682C416.306 374.792 416.085 378.089 413.912 380.045C411.739 382.002 408.437 381.878 406.537 379.768C404.637 377.658 404.859 374.362 407.032 372.405C409.205 370.449 412.507 370.573 414.406 372.682ZM413.719 207.973C415.892 206.016 416.113 202.72 414.213 200.61C412.313 198.5 409.012 198.376 406.839 200.333C404.666 202.289 404.444 205.586 406.344 207.696C408.244 209.805 411.546 209.93 413.719 207.973ZM384.347 257.108C386.247 259.218 386.026 262.514 383.853 264.471C381.68 266.428 378.378 266.304 376.478 264.194C374.579 262.084 374.8 258.787 376.973 256.831C379.146 254.874 382.448 254.998 384.347 257.108ZM457.725 219.483C459.898 217.526 460.119 214.229 458.219 212.12C456.319 210.01 453.018 209.886 450.845 211.842C448.672 213.799 448.45 217.096 450.35 219.205C452.25 221.315 455.552 221.439 457.725 219.483ZM361.593 218.388C363.492 220.498 363.271 223.794 361.098 225.751C358.925 227.708 355.623 227.584 353.724 225.474C351.824 223.364 352.045 220.068 354.218 218.111C356.391 216.154 359.693 216.278 361.593 218.388ZM317.321 236.912C319.494 234.955 319.715 231.659 317.815 229.549C315.916 227.439 312.614 227.315 310.441 229.272C308.268 231.228 308.047 234.525 309.946 236.635C311.846 238.744 315.148 238.869 317.321 236.912ZM364.753 47.3505C369.767 50.7795 376.739 49.3091 380.324 44.0663C383.909 38.8235 382.749 31.7935 377.735 28.3645C372.72 24.9355 365.748 26.4059 362.163 31.6488C358.578 36.8916 359.738 43.9215 364.753 47.3505ZM306.652 34.88C303.067 40.1229 296.095 41.5933 291.08 38.1642C286.065 34.7353 284.906 27.7053 288.491 22.4625C292.076 17.2196 299.047 15.7492 304.062 19.1783C309.077 22.6072 310.236 29.6372 306.652 34.88ZM394.787 111.498C399.802 114.927 406.774 113.457 410.358 108.214C413.943 102.971 412.784 95.9412 407.769 92.5122C402.754 89.0832 395.783 90.5536 392.198 95.7964C388.613 101.039 389.772 108.069 394.787 111.498ZM515.978 42.331C512.393 47.5739 505.421 49.0443 500.407 45.6152C495.392 42.1862 494.232 35.1563 497.817 29.9135C501.402 24.6706 508.374 23.2002 513.388 26.6292C518.403 30.0582 519.563 37.0882 515.978 42.331ZM498.77 90.5298C503.784 93.9588 510.756 92.4884 514.341 87.2456C517.926 82.0028 516.766 74.9728 511.752 71.5438C506.737 68.1148 499.765 69.5852 496.18 74.8281C492.595 80.0709 493.755 87.1008 498.77 90.5298ZM440.189 71.6742C436.604 76.917 429.632 78.3874 424.618 74.9584C419.603 71.5294 418.443 64.4995 422.028 59.2567C425.613 54.0138 432.585 52.5434 437.599 55.9724C442.614 59.4014 443.774 66.4313 440.189 71.6742ZM534.214 117.873C535.022 123.894 540.78 128.091 547.074 127.247C553.369 126.402 557.818 120.837 557.01 114.815C556.203 108.794 550.445 104.597 544.15 105.442C537.855 106.286 533.407 111.852 534.214 117.873ZM378.593 84.847C376.991 87.1906 373.735 87.7525 371.321 86.102C368.907 84.4515 368.249 81.2137 369.852 78.8701C371.454 76.5265 374.71 75.9647 377.124 77.6151C379.538 79.2656 380.195 82.5034 378.593 84.847ZM462.681 124.342C465.095 125.993 468.351 125.431 469.953 123.087C471.556 120.744 470.898 117.506 468.484 115.856C466.07 114.205 462.814 114.767 461.212 117.111C459.61 119.454 460.267 122.692 462.681 124.342ZM379.463 6.87C381.877 8.52048 385.133 7.95862 386.735 5.61502C388.338 3.27145 387.68 0.0336304 385.266 -1.61682C382.852 -3.2673 379.596 -2.70544 377.994 -0.361877C376.392 1.98172 377.049 5.21951 379.463 6.87ZM327.437 43.9812C329.85 45.6317 333.106 45.0698 334.709 42.7262C336.311 40.3827 335.653 37.1448 333.24 35.4944C330.826 33.8439 327.57 34.4058 325.967 36.7493C324.365 39.0929 325.023 42.3307 327.437 43.9812ZM475.188 55.1935C473.586 57.537 470.33 58.0989 467.916 56.4484C465.503 54.798 464.845 51.5602 466.447 49.2166C468.05 46.873 471.306 46.3111 473.719 47.9616C476.133 49.6121 476.791 52.8499 475.188 55.1935ZM433.696 21.9766C432.093 24.3202 428.837 24.882 426.424 23.2316C424.01 21.5811 423.352 18.3433 424.955 15.9997C426.557 13.6561 429.813 13.0943 432.227 14.7448C434.64 16.3952 435.298 19.633 433.696 21.9766ZM453.553 95.363C455.967 97.0135 459.222 96.4516 460.825 94.108C462.427 91.7645 461.77 88.5266 459.356 86.8762C456.942 85.2257 453.686 85.7876 452.084 88.1311C450.481 90.4747 451.139 93.7125 453.553 95.363ZM346.888 80.5637C343.303 85.8066 336.332 87.277 331.317 83.848C326.302 80.419 325.143 73.3891 328.728 68.1462C332.313 62.9034 339.284 61.433 344.299 64.862C349.314 68.291 350.473 75.3209 346.888 80.5637ZM257.371 19.4753C259.784 21.1258 263.04 20.5639 264.643 18.2203C266.245 15.8767 265.587 12.6389 263.174 10.9885C261.586 9.90311 259.635 9.77444 258.029 10.48C256.797 9.17963 254.897 8.54651 252.983 8.97964C250.131 9.62497 248.327 12.3929 248.953 15.1619C249.58 17.931 252.4 19.6526 255.252 19.0072C255.653 18.9166 256.033 18.784 256.388 18.6155C256.673 18.9333 257.001 19.2228 257.371 19.4753ZM523.08 204.118C523.925 210.413 519.728 216.171 513.707 216.979C507.685 217.786 502.12 213.338 501.275 207.043C500.431 200.748 504.628 194.99 510.649 194.183C516.67 193.375 522.236 197.823 523.08 204.118ZM514.977 151.226C520.998 150.419 525.195 144.661 524.351 138.366C523.507 132.071 517.941 127.623 511.92 128.43C505.899 129.238 501.702 134.995 502.546 141.29C503.39 147.585 508.956 152.034 514.977 151.226ZM454.126 163.928C454.97 170.223 450.773 175.981 444.752 176.788C438.731 177.596 433.165 173.147 432.321 166.852C431.477 160.558 435.673 154.8 441.695 153.992C447.716 153.185 453.281 157.633 454.126 163.928ZM524.728 176.086C527.626 175.697 529.67 173.101 529.292 170.287C528.915 167.473 526.259 165.507 523.361 165.896C520.463 166.285 518.419 168.881 518.797 171.695C519.174 174.508 521.83 176.474 524.728 176.086ZM475.82 155.262C476.198 158.076 474.154 160.672 471.256 161.06C468.358 161.449 465.702 159.483 465.325 156.669C464.948 153.856 466.991 151.259 469.889 150.871C472.787 150.482 475.443 152.448 475.82 155.262ZM428.819 145.564C431.718 145.175 433.761 142.579 433.384 139.765C433.006 136.952 430.351 134.986 427.453 135.374C424.555 135.763 422.511 138.359 422.888 141.173C423.266 143.987 425.921 145.953 428.819 145.564ZM325.039 280.909C326.938 283.018 326.717 286.315 324.544 288.272C322.371 290.228 319.069 290.104 317.17 287.994C315.27 285.885 315.491 282.588 317.664 280.632C319.837 278.675 323.139 278.799 325.039 280.909ZM61.0315 144.928C58.3269 150.368 60.7448 157.07 66.432 159.898C72.1192 162.725 78.922 160.607 81.6266 155.167C84.3311 149.728 81.9132 143.025 76.226 140.198C70.5388 137.37 63.736 139.488 61.0315 144.928ZM89.8504 231.846C84.1632 229.019 81.7453 222.317 84.4499 216.877C87.1544 211.437 93.9573 209.319 99.6445 212.146C105.332 214.974 107.75 221.676 105.045 227.116C102.34 232.556 95.5376 234.674 89.8504 231.846ZM98.9228 91.1765C96.2182 96.6164 98.6361 103.318 104.323 106.146C110.01 108.973 116.813 106.856 119.518 101.416C122.222 95.9758 119.805 89.2737 114.117 86.4462C108.43 83.6188 101.627 85.7366 98.9228 91.1765ZM40.6012 207.361C34.914 204.534 32.4961 197.831 35.2007 192.392C37.9052 186.952 44.7081 184.834 50.3953 187.661C56.0824 190.489 58.5003 197.191 55.7958 202.631C53.0912 208.071 46.2884 210.188 40.6012 207.361ZM26.4327 73.0051C23.7282 78.445 26.1461 85.1471 31.8333 87.9746C37.5205 90.802 44.3233 88.6842 47.0279 83.2443C49.7324 77.8044 47.3145 71.1024 41.6273 68.2749C35.9401 65.4474 29.1373 67.5652 26.4327 73.0051ZM10.7207 243.877C8.01614 249.317 10.4341 256.019 16.1212 258.846C21.8084 261.674 28.6113 259.556 31.3158 254.116C34.0204 248.676 31.6024 241.974 25.9153 239.147C20.2281 236.319 13.4253 238.437 10.7207 243.877ZM98.1807 132.786C95.6385 131.522 94.633 128.375 95.9348 125.757C97.2365 123.138 100.353 122.04 102.895 123.304C105.437 124.568 106.443 127.715 105.141 130.334C103.839 132.952 100.723 134.05 98.1807 132.786ZM32.4144 118.745C31.1126 121.364 32.1182 124.511 34.6603 125.775C37.2025 127.039 40.3187 125.941 41.6205 123.322C42.9222 120.704 41.9167 117.557 39.3745 116.293C36.8323 115.029 33.7161 116.127 32.4144 118.745ZM103.65 177.942C101.108 176.678 100.102 173.531 101.404 170.913C102.706 168.294 105.822 167.196 108.364 168.46C110.906 169.724 111.912 172.871 110.61 175.49C109.308 178.108 106.192 179.206 103.65 177.942ZM60.0614 83.3526C58.7596 85.9709 59.7652 89.1181 62.3073 90.382C64.8495 91.646 67.9657 90.5479 69.2675 87.9295C70.5692 85.3112 69.5637 82.1639 67.0215 80.9001C64.4793 79.6362 61.3631 80.7342 60.0614 83.3526ZM35.8386 53.7705C33.2964 52.5066 32.2908 49.3594 33.5926 46.741C34.8944 44.1226 38.0105 43.0246 40.5527 44.2885C43.0949 45.5524 44.1005 48.6996 42.7987 51.318C41.4969 53.9363 38.3808 55.0344 35.8386 53.7705ZM56.3896 238.992C55.0878 241.61 56.0934 244.757 58.6356 246.021C61.1778 247.285 64.2939 246.187 65.5957 243.569C66.8975 240.95 65.8919 237.803 63.3497 236.539C60.8075 235.275 57.6913 236.373 56.3896 238.992ZM24.9323 174.543C22.3901 173.279 21.3845 170.132 22.6863 167.514C23.988 164.895 27.1042 163.797 29.6464 165.061C32.1886 166.325 33.1942 169.472 31.8924 172.091C30.5906 174.709 27.4745 175.807 24.9323 174.543ZM22.0739 349.557C15.9556 351.261 9.67404 347.899 8.0437 342.046C6.41333 336.194 10.0515 330.068 16.1698 328.364C22.2881 326.659 28.5696 330.022 30.2 335.874C31.8304 341.726 28.1921 347.852 22.0739 349.557ZM11.0019 289.318C12.6323 295.171 18.9138 298.533 25.0321 296.829C31.1504 295.124 34.7886 288.998 33.1582 283.146C31.5279 277.294 25.2463 273.931 19.1281 275.636C13.0098 277.34 9.37155 283.466 11.0019 289.318ZM43.1446 325.68C40.4097 326.442 37.5565 324.776 36.7717 321.959C35.987 319.143 37.5679 316.241 40.3028 315.479C43.0378 314.718 45.891 316.383 46.6757 319.2C47.4604 322.017 45.8795 324.918 43.1446 325.68ZM458.62 326.141C460.52 328.251 460.299 331.547 458.126 333.504C455.953 335.46 452.651 335.336 450.751 333.227C448.851 331.117 449.073 327.82 451.246 325.864C453.419 323.907 456.721 324.031 458.62 326.141ZM504.495 286.367C506.668 284.41 506.889 281.114 504.99 279.004C503.09 276.894 499.788 276.77 497.615 278.727C495.442 280.684 495.221 283.98 497.121 286.09C499.02 288.2 502.322 288.324 504.495 286.367ZM426.128 284.079C428.027 286.188 427.806 289.485 425.633 291.442C423.46 293.398 420.158 293.274 418.258 291.165C416.359 289.055 416.58 285.758 418.753 283.802C420.926 281.845 424.228 281.969 426.128 284.079ZM434.993 367.936C437.166 365.979 437.388 362.682 435.488 360.573C433.588 358.463 430.287 358.339 428.114 360.295C425.941 362.252 425.719 365.549 427.619 367.658C429.519 369.768 432.82 369.892 434.993 367.936ZM136.538 56.6635C135.136 50.4688 138.803 44.3602 144.729 43.0194C150.654 41.6787 156.594 45.6136 157.996 51.8082C159.397 58.0029 155.73 64.1116 149.805 65.4523C143.879 66.7931 137.94 62.8582 136.538 56.6635ZM521.729 372.428C515.803 373.768 512.136 379.877 513.538 386.072C514.94 392.266 520.879 396.201 526.805 394.861C532.73 393.52 536.397 387.411 534.996 381.216C533.594 375.022 527.654 371.087 521.729 372.428ZM539.859 216.638C539.859 219.477 537.489 221.778 534.565 221.778C531.641 221.778 529.27 219.477 529.27 216.638C529.27 213.799 531.641 211.497 534.565 211.497C537.489 211.497 539.859 213.799 539.859 216.638ZM556.565 56.2294C561.079 52.1642 561.294 45.0425 557.044 40.3228C552.794 35.603 545.689 35.0724 541.174 39.1376C536.66 43.2028 536.445 50.3244 540.695 55.0442C544.945 59.764 552.05 60.2946 556.565 56.2294ZM327.031 349.986C331.281 354.706 331.066 361.827 326.552 365.893C322.037 369.958 314.932 369.427 310.682 364.707C306.432 359.988 306.646 352.866 311.161 348.801C315.676 344.736 322.781 345.266 327.031 349.986ZM592.908 214.453C597.423 210.387 597.637 203.266 593.387 198.546C589.137 193.826 582.032 193.296 577.518 197.361C573.003 201.426 572.789 208.548 577.039 213.267C581.289 217.987 588.394 218.518 592.908 214.453ZM591.692 81.7896C595.942 86.5094 595.728 93.631 591.213 97.6963C586.699 101.761 579.593 101.231 575.343 96.5111C571.093 91.7913 571.308 84.6697 575.823 80.6045C580.337 76.5392 587.442 77.0699 591.692 81.7896ZM549.367 275.191C553.882 271.126 554.096 264.004 549.846 259.284C545.596 254.564 538.491 254.034 533.976 258.099C529.462 262.164 529.247 269.286 533.497 274.006C537.747 278.725 544.852 279.256 549.367 275.191ZM570.745 306.404C574.995 311.124 574.78 318.245 570.266 322.31C565.751 326.376 558.646 325.845 554.396 321.125C550.146 316.405 550.36 309.284 554.875 305.219C559.39 301.153 566.495 301.684 570.745 306.404ZM584.332 391.73C588.846 387.665 589.061 380.544 584.811 375.824C580.561 371.104 573.456 370.573 568.941 374.639C564.427 378.704 564.212 385.825 568.462 390.545C572.712 395.265 579.817 395.796 584.332 391.73ZM559.027 353.685C560.927 355.794 560.705 359.091 558.532 361.048C556.359 363.004 553.058 362.88 551.158 360.77C549.258 358.661 549.48 355.364 551.653 353.408C553.826 351.451 557.127 351.575 559.027 353.685ZM585.123 285.968C587.296 284.011 587.517 280.715 585.618 278.605C583.718 276.495 580.416 276.371 578.243 278.328C576.07 280.285 575.849 283.581 577.749 285.691C579.648 287.801 582.95 287.925 585.123 285.968ZM587.082 20.3991C588.982 22.5089 588.76 25.8054 586.588 27.7621C584.415 29.7188 581.113 29.5947 579.213 27.485C577.313 25.3752 577.535 22.0787 579.708 20.122C581.881 18.1653 585.182 18.2894 587.082 20.3991ZM562.368 247.248C564.541 245.292 564.763 241.995 562.863 239.885C560.963 237.776 557.661 237.652 555.488 239.608C553.316 241.565 553.094 244.861 554.994 246.971C556.894 249.081 560.195 249.205 562.368 247.248ZM346.41 317.398C347.254 323.693 343.058 329.451 337.036 330.258C331.015 331.066 325.449 326.617 324.605 320.322C323.761 314.028 327.958 308.27 333.979 307.462C340 306.655 345.566 311.103 346.41 317.398ZM525.814 309.769C527.987 307.812 528.209 304.516 526.309 302.406C524.409 300.296 521.108 300.172 518.935 302.129C516.762 304.085 516.54 307.382 518.44 309.492C520.34 311.601 523.641 311.726 525.814 309.769ZM587.483 134.42C589.383 136.53 589.161 139.827 586.989 141.783C584.816 143.74 581.514 143.616 579.614 141.506C577.714 139.396 577.936 136.1 580.109 134.143C582.282 132.187 585.583 132.311 587.483 134.42ZM327.825 399.647C329.998 397.69 330.219 394.393 328.319 392.284C326.42 390.174 323.118 390.05 320.945 392.006C318.772 393.963 318.551 397.26 320.45 399.369C322.35 401.479 325.652 401.603 327.825 399.647ZM563.856 176.215C566.029 174.258 566.251 170.962 564.351 168.852C562.451 166.742 559.15 166.618 556.977 168.575C554.804 170.532 554.582 173.828 556.482 175.938C558.382 178.048 561.683 178.172 563.856 176.215ZM198.453 38.5237C197.052 32.329 200.719 26.2203 206.644 24.8796C212.569 23.5388 218.509 27.4737 219.911 33.6684C221.313 39.8631 217.645 45.9717 211.72 47.3125C205.795 48.6532 199.855 44.7184 198.453 38.5237ZM22.1281 26.2357C16.2027 27.5764 12.5356 33.6851 13.9373 39.8798C15.339 46.0745 21.2787 50.0093 27.2041 48.6686C33.1294 47.3278 36.7965 41.2192 35.3948 35.0245C33.9931 28.8298 28.0534 24.895 22.1281 26.2357ZM113.134 50.3508C112.508 47.5818 114.312 44.8138 117.164 44.1685C120.016 43.5232 122.836 45.2448 123.463 48.0138C124.089 50.7828 122.285 53.5508 119.433 54.1961C116.581 54.8414 113.761 53.1198 113.134 50.3508ZM167.744 23.2848C167.117 20.5158 168.921 17.7479 171.773 17.1025C174.625 16.4572 177.445 18.1788 178.072 20.9478C178.698 23.7169 176.894 26.4848 174.042 27.1301C171.19 27.7755 168.37 26.0539 167.744 23.2848ZM33.5042 0.8172C30.6522 1.46252 28.8481 4.23044 29.4746 6.99948C30.1012 9.76852 32.9212 11.4901 35.7732 10.8448C38.6252 10.1995 40.4293 7.43155 39.8028 4.66251C39.1762 1.89346 36.3562 0.171844 33.5042 0.8172ZM64.3916 60.3619C59.2048 56.6964 57.8422 49.7031 61.3483 44.7417C64.8544 39.7804 71.9014 38.7299 77.0882 42.3953C82.275 46.0608 83.6376 53.0541 80.1315 58.0155C76.6254 62.9768 69.5784 64.0273 64.3916 60.3619ZM104.087 13.7197C100.581 18.6811 101.944 25.6744 107.131 29.3399C112.318 33.0053 119.365 31.9548 122.871 26.9935C126.377 22.0321 125.014 15.0388 119.827 11.3733C114.641 7.70789 107.594 8.75842 104.087 13.7197ZM96.2115 61.6083C93.8929 59.9698 93.3815 56.7057 95.069 54.3177C96.7566 51.9297 100.004 51.3221 102.323 52.9605C104.641 54.599 105.153 57.8631 103.465 60.2511C101.778 62.6391 98.53 63.2468 96.2115 61.6083ZM76.6891 11.8184C75.0015 14.2065 75.513 17.4706 77.8315 19.109C80.1501 20.7475 83.3976 20.1399 85.0852 17.7518C86.7728 15.3638 86.2613 12.0997 83.9427 10.4612C81.6242 8.82278 78.3766 9.43042 76.6891 11.8184Z" fill="white"/>
</svg>
